<mxfile host="app.diagrams.net" agent="Mozilla/5.0 (Windows NT 10.0; Win64; x64) AppleWebKit/537.36 (KHTML, like Gecko) Chrome/127.0.0.0 Safari/537.36" version="24.7.8">
  <diagram name="ページ1" id="Uxjpkjm80ZWDSXFeTXdA">
    <mxGraphModel dx="1434" dy="738" grid="1" gridSize="10" guides="1" tooltips="1" connect="1" arrows="1" fold="1" page="1" pageScale="1" pageWidth="827" pageHeight="1169" math="0" shadow="0">
      <root>
        <mxCell id="0" />
        <mxCell id="1" parent="0" />
        <mxCell id="gUU_AARoziC5rCuHC49u-1" value="AWS Cloud" style="points=[[0,0],[0.25,0],[0.5,0],[0.75,0],[1,0],[1,0.25],[1,0.5],[1,0.75],[1,1],[0.75,1],[0.5,1],[0.25,1],[0,1],[0,0.75],[0,0.5],[0,0.25]];outlineConnect=0;gradientColor=none;html=1;whiteSpace=wrap;fontSize=12;fontStyle=0;container=1;pointerEvents=0;collapsible=0;recursiveResize=0;shape=mxgraph.aws4.group;grIcon=mxgraph.aws4.group_aws_cloud_alt;strokeColor=#232F3E;fillColor=none;verticalAlign=top;align=left;spacingLeft=30;fontColor=#232F3E;dashed=0;" vertex="1" parent="1">
          <mxGeometry width="1160" height="600" as="geometry" />
        </mxCell>
        <mxCell id="gUU_AARoziC5rCuHC49u-2" value="" style="sketch=0;points=[[0,0,0],[0.25,0,0],[0.5,0,0],[0.75,0,0],[1,0,0],[0,1,0],[0.25,1,0],[0.5,1,0],[0.75,1,0],[1,1,0],[0,0.25,0],[0,0.5,0],[0,0.75,0],[1,0.25,0],[1,0.5,0],[1,0.75,0]];outlineConnect=0;fontColor=#232F3E;fillColor=#DD344C;strokeColor=#ffffff;dashed=0;verticalLabelPosition=bottom;verticalAlign=top;align=center;html=1;fontSize=12;fontStyle=0;aspect=fixed;shape=mxgraph.aws4.resourceIcon;resIcon=mxgraph.aws4.connect;" vertex="1" parent="gUU_AARoziC5rCuHC49u-1">
          <mxGeometry x="40" y="40" width="78" height="78" as="geometry" />
        </mxCell>
        <mxCell id="gUU_AARoziC5rCuHC49u-21" style="edgeStyle=elbowEdgeStyle;rounded=0;orthogonalLoop=1;jettySize=auto;html=1;exitX=1;exitY=0.5;exitDx=0;exitDy=0;exitPerimeter=0;" edge="1" parent="gUU_AARoziC5rCuHC49u-1" source="gUU_AARoziC5rCuHC49u-3" target="gUU_AARoziC5rCuHC49u-8">
          <mxGeometry relative="1" as="geometry" />
        </mxCell>
        <mxCell id="gUU_AARoziC5rCuHC49u-3" value="" style="sketch=0;points=[[0,0,0],[0.25,0,0],[0.5,0,0],[0.75,0,0],[1,0,0],[0,1,0],[0.25,1,0],[0.5,1,0],[0.75,1,0],[1,1,0],[0,0.25,0],[0,0.5,0],[0,0.75,0],[1,0.25,0],[1,0.5,0],[1,0.75,0]];outlineConnect=0;fontColor=#232F3E;fillColor=#7AA116;strokeColor=#ffffff;dashed=0;verticalLabelPosition=bottom;verticalAlign=top;align=center;html=1;fontSize=12;fontStyle=0;aspect=fixed;shape=mxgraph.aws4.resourceIcon;resIcon=mxgraph.aws4.s3;" vertex="1" parent="gUU_AARoziC5rCuHC49u-1">
          <mxGeometry x="240" y="40" width="78" height="78" as="geometry" />
        </mxCell>
        <mxCell id="gUU_AARoziC5rCuHC49u-4" value="" style="sketch=0;points=[[0,0,0],[0.25,0,0],[0.5,0,0],[0.75,0,0],[1,0,0],[0,1,0],[0.25,1,0],[0.5,1,0],[0.75,1,0],[1,1,0],[0,0.25,0],[0,0.5,0],[0,0.75,0],[1,0.25,0],[1,0.5,0],[1,0.75,0]];outlineConnect=0;fontColor=#232F3E;fillColor=#7AA116;strokeColor=#ffffff;dashed=0;verticalLabelPosition=bottom;verticalAlign=top;align=center;html=1;fontSize=12;fontStyle=0;aspect=fixed;shape=mxgraph.aws4.resourceIcon;resIcon=mxgraph.aws4.s3;" vertex="1" parent="gUU_AARoziC5rCuHC49u-1">
          <mxGeometry x="640" y="40" width="78" height="78" as="geometry" />
        </mxCell>
        <mxCell id="gUU_AARoziC5rCuHC49u-5" value="" style="sketch=0;points=[[0,0,0],[0.25,0,0],[0.5,0,0],[0.75,0,0],[1,0,0],[0,1,0],[0.25,1,0],[0.5,1,0],[0.75,1,0],[1,1,0],[0,0.25,0],[0,0.5,0],[0,0.75,0],[1,0.25,0],[1,0.5,0],[1,0.75,0]];outlineConnect=0;fontColor=#232F3E;fillColor=#ED7100;strokeColor=#ffffff;dashed=0;verticalLabelPosition=bottom;verticalAlign=top;align=center;html=1;fontSize=12;fontStyle=0;aspect=fixed;shape=mxgraph.aws4.resourceIcon;resIcon=mxgraph.aws4.lambda;" vertex="1" parent="gUU_AARoziC5rCuHC49u-1">
          <mxGeometry x="240" y="240" width="78" height="78" as="geometry" />
        </mxCell>
        <mxCell id="gUU_AARoziC5rCuHC49u-7" value="" style="sketch=0;points=[[0,0,0],[0.25,0,0],[0.5,0,0],[0.75,0,0],[1,0,0],[0,1,0],[0.25,1,0],[0.5,1,0],[0.75,1,0],[1,1,0],[0,0.25,0],[0,0.5,0],[0,0.75,0],[1,0.25,0],[1,0.5,0],[1,0.75,0]];outlineConnect=0;fontColor=#232F3E;fillColor=#C925D1;strokeColor=#ffffff;dashed=0;verticalLabelPosition=bottom;verticalAlign=top;align=center;html=1;fontSize=12;fontStyle=0;aspect=fixed;shape=mxgraph.aws4.resourceIcon;resIcon=mxgraph.aws4.dynamodb;" vertex="1" parent="gUU_AARoziC5rCuHC49u-1">
          <mxGeometry x="440" y="240" width="78" height="78" as="geometry" />
        </mxCell>
        <mxCell id="gUU_AARoziC5rCuHC49u-8" value="" style="sketch=0;points=[[0,0,0],[0.25,0,0],[0.5,0,0],[0.75,0,0],[1,0,0],[0,1,0],[0.25,1,0],[0.5,1,0],[0.75,1,0],[1,1,0],[0,0.25,0],[0,0.5,0],[0,0.75,0],[1,0.25,0],[1,0.5,0],[1,0.75,0]];outlineConnect=0;fontColor=#232F3E;fillColor=#ED7100;strokeColor=#ffffff;dashed=0;verticalLabelPosition=bottom;verticalAlign=top;align=center;html=1;fontSize=12;fontStyle=0;aspect=fixed;shape=mxgraph.aws4.resourceIcon;resIcon=mxgraph.aws4.lambda;" vertex="1" parent="gUU_AARoziC5rCuHC49u-1">
          <mxGeometry x="440" y="40" width="78" height="78" as="geometry" />
        </mxCell>
        <mxCell id="gUU_AARoziC5rCuHC49u-9" value="" style="sketch=0;points=[[0,0,0],[0.25,0,0],[0.5,0,0],[0.75,0,0],[1,0,0],[0,1,0],[0.25,1,0],[0.5,1,0],[0.75,1,0],[1,1,0],[0,0.25,0],[0,0.5,0],[0,0.75,0],[1,0.25,0],[1,0.5,0],[1,0.75,0]];outlineConnect=0;fontColor=#232F3E;fillColor=#ED7100;strokeColor=#ffffff;dashed=0;verticalLabelPosition=bottom;verticalAlign=top;align=center;html=1;fontSize=12;fontStyle=0;aspect=fixed;shape=mxgraph.aws4.resourceIcon;resIcon=mxgraph.aws4.ecr;" vertex="1" parent="gUU_AARoziC5rCuHC49u-1">
          <mxGeometry x="1040" y="40" width="78" height="78" as="geometry" />
        </mxCell>
        <mxCell id="gUU_AARoziC5rCuHC49u-13" style="edgeStyle=orthogonalEdgeStyle;rounded=0;orthogonalLoop=1;jettySize=auto;html=1;exitX=1;exitY=0.5;exitDx=0;exitDy=0;exitPerimeter=0;entryX=0;entryY=0.5;entryDx=0;entryDy=0;entryPerimeter=0;" edge="1" parent="gUU_AARoziC5rCuHC49u-1" source="gUU_AARoziC5rCuHC49u-2" target="gUU_AARoziC5rCuHC49u-3">
          <mxGeometry relative="1" as="geometry" />
        </mxCell>
        <mxCell id="gUU_AARoziC5rCuHC49u-24" style="edgeStyle=elbowEdgeStyle;rounded=0;orthogonalLoop=1;jettySize=auto;html=1;exitX=1;exitY=0.5;exitDx=0;exitDy=0;exitPerimeter=0;" edge="1" parent="gUU_AARoziC5rCuHC49u-1" source="gUU_AARoziC5rCuHC49u-17" target="gUU_AARoziC5rCuHC49u-9">
          <mxGeometry relative="1" as="geometry" />
        </mxCell>
        <mxCell id="gUU_AARoziC5rCuHC49u-17" value="" style="sketch=0;points=[[0,0,0],[0.25,0,0],[0.5,0,0],[0.75,0,0],[1,0,0],[0,1,0],[0.25,1,0],[0.5,1,0],[0.75,1,0],[1,1,0],[0,0.25,0],[0,0.5,0],[0,0.75,0],[1,0.25,0],[1,0.5,0],[1,0.75,0]];outlineConnect=0;fontColor=#232F3E;fillColor=#ED7100;strokeColor=#ffffff;dashed=0;verticalLabelPosition=bottom;verticalAlign=top;align=center;html=1;fontSize=12;fontStyle=0;aspect=fixed;shape=mxgraph.aws4.resourceIcon;resIcon=mxgraph.aws4.lambda;" vertex="1" parent="gUU_AARoziC5rCuHC49u-1">
          <mxGeometry x="840" y="40" width="78" height="78" as="geometry" />
        </mxCell>
        <mxCell id="gUU_AARoziC5rCuHC49u-18" value="" style="sketch=0;points=[[0,0,0],[0.25,0,0],[0.5,0,0],[0.75,0,0],[1,0,0],[0,1,0],[0.25,1,0],[0.5,1,0],[0.75,1,0],[1,1,0],[0,0.25,0],[0,0.5,0],[0,0.75,0],[1,0.25,0],[1,0.5,0],[1,0.75,0]];outlineConnect=0;fontColor=#232F3E;fillColor=#ED7100;strokeColor=#ffffff;dashed=0;verticalLabelPosition=bottom;verticalAlign=top;align=center;html=1;fontSize=12;fontStyle=0;aspect=fixed;shape=mxgraph.aws4.resourceIcon;resIcon=mxgraph.aws4.lambda;" vertex="1" parent="gUU_AARoziC5rCuHC49u-1">
          <mxGeometry x="840" y="240" width="78" height="78" as="geometry" />
        </mxCell>
        <mxCell id="gUU_AARoziC5rCuHC49u-19" value="" style="sketch=0;points=[[0,0,0],[0.25,0,0],[0.5,0,0],[0.75,0,0],[1,0,0],[0,1,0],[0.25,1,0],[0.5,1,0],[0.75,1,0],[1,1,0],[0,0.25,0],[0,0.5,0],[0,0.75,0],[1,0.25,0],[1,0.5,0],[1,0.75,0]];outlineConnect=0;fontColor=#232F3E;fillColor=#C925D1;strokeColor=#ffffff;dashed=0;verticalLabelPosition=bottom;verticalAlign=top;align=center;html=1;fontSize=12;fontStyle=0;aspect=fixed;shape=mxgraph.aws4.resourceIcon;resIcon=mxgraph.aws4.dynamodb;" vertex="1" parent="gUU_AARoziC5rCuHC49u-1">
          <mxGeometry x="840" y="440" width="78" height="78" as="geometry" />
        </mxCell>
        <mxCell id="gUU_AARoziC5rCuHC49u-22" style="edgeStyle=elbowEdgeStyle;rounded=0;orthogonalLoop=1;jettySize=auto;html=1;exitX=1;exitY=0.5;exitDx=0;exitDy=0;exitPerimeter=0;entryX=0;entryY=0.5;entryDx=0;entryDy=0;entryPerimeter=0;" edge="1" parent="gUU_AARoziC5rCuHC49u-1" source="gUU_AARoziC5rCuHC49u-8" target="gUU_AARoziC5rCuHC49u-4">
          <mxGeometry relative="1" as="geometry" />
        </mxCell>
        <mxCell id="gUU_AARoziC5rCuHC49u-23" style="edgeStyle=elbowEdgeStyle;rounded=0;orthogonalLoop=1;jettySize=auto;html=1;exitX=1;exitY=0.5;exitDx=0;exitDy=0;exitPerimeter=0;entryX=0;entryY=0.5;entryDx=0;entryDy=0;entryPerimeter=0;" edge="1" parent="gUU_AARoziC5rCuHC49u-1" source="gUU_AARoziC5rCuHC49u-4" target="gUU_AARoziC5rCuHC49u-17">
          <mxGeometry relative="1" as="geometry" />
        </mxCell>
        <mxCell id="gUU_AARoziC5rCuHC49u-25" style="edgeStyle=elbowEdgeStyle;rounded=0;orthogonalLoop=1;jettySize=auto;html=1;exitX=0.5;exitY=1;exitDx=0;exitDy=0;exitPerimeter=0;entryX=0.5;entryY=0;entryDx=0;entryDy=0;entryPerimeter=0;" edge="1" parent="gUU_AARoziC5rCuHC49u-1" source="gUU_AARoziC5rCuHC49u-17" target="gUU_AARoziC5rCuHC49u-18">
          <mxGeometry relative="1" as="geometry" />
        </mxCell>
        <mxCell id="gUU_AARoziC5rCuHC49u-20" value="" style="edgeStyle=orthogonalEdgeStyle;html=1;endArrow=block;elbow=vertical;startArrow=none;endFill=1;strokeColor=#545B64;rounded=0;entryX=0;entryY=0.5;entryDx=0;entryDy=0;entryPerimeter=0;" edge="1" parent="gUU_AARoziC5rCuHC49u-1" source="gUU_AARoziC5rCuHC49u-7" target="gUU_AARoziC5rCuHC49u-18">
          <mxGeometry width="100" relative="1" as="geometry">
            <mxPoint x="730" y="280" as="sourcePoint" />
            <mxPoint x="830" y="280" as="targetPoint" />
          </mxGeometry>
        </mxCell>
        <mxCell id="gUU_AARoziC5rCuHC49u-10" value="" style="shape=image;verticalLabelPosition=bottom;labelBackgroundColor=default;verticalAlign=top;aspect=fixed;imageAspect=0;image=data:image/png,iVBORw0KGgoAAAANSUhEUgAAAFMAAABTCAYAAADjsjsAAAAAAXNSR0IArs4c6QAAAARnQU1BAACxjwv8YQUAAAAJcEhZcwAAFxEAABcRAcom8z8AAAuNSURBVHhe7Zx5dFTVHcfzR3tO//BUetojiYCRAhUBAQUDmpAACRLWJJBQd6gCcjyxUrGCoIbs+77OJDH1WMWwy+JaoRStelDRgg1kJpkkk5k3W8iGgER7e39v7nvzePMbMpm8SYK+3zmfk5n3/d15935y3yxJIEAttdRSSy211FJLLbXUUksttdRSS1prajqmram2rV9T21G3ptZxHEiotZ9JqHEY6O3T/LGajj2QJ1TbdybUWsMiksgv2HC1QAiVVU3ldK6pcZCBAuMSqh27ErTWdWvrDL9iD/vzKdhN8dWORCqxgUKUgj4mF6+1bf7ZSP3LXsdquuiGeFi8n1jNpP5knwL+/smF4A/OduqbuW66WPtQcTKhzhrIpvDTqLiajmWF/+j8uqenh1g6esgqutAhQ2v7nH59mE3lxq44rTU+TmvvTXungwyLTEqc1tYXq7EmsindmBWjsT8Wq7G1xWrtJFUiE+4PNTFaWxedz9NsajdWrdQ64qnIc8JihlsmEKOxGeEbzKZ4Y1Sc1jF2RZW1c6XGRgRSjrpkSo8PA70rq+yz2VRHdm3UkF+u0NhelS9iBMkkK6ush2Nf6/4tm/LIrWWV1sQVVTYiJ/mISyaWDzXLKixb2JRHZsUUdo6iMjuXV1mJnJ1HHKJMLB9q+HlqTL9jUx95tbTS+vwymChCkkQmlg8HdL6VbOojq5ZrLty2pNLyxZJKK8F4RZDp6EHzYaHCol9aZg5mSxgZtbTMGrik0paJTpjhq8yVtTby+N5OHiwfLNEV3INsGcNTEWXWmxaXmzctLrfsii63GKIrLHRS1+flw3ZRJpbLWVFjJdv+/R2pNP2P1NiJCBzD+n1lcQV3gC1raCuq1Dz7gQprJZ1A72J+It4jyOSoTCyXAiLzdH28vAoqE27DV0Fo8jdX0HE+UW65DJuDLdH/tajEFLqozPLqA+UW4isvHXLJxHIpWz/5jpcGEte84RCPbzzaLQqF29Ixg6KUW86W6r+K0jTdvKjc8tyiMu6/i8o5Mhh2iDK70VxKcesPvLBH9nS4ZS98cpGJvko2HO1yI6bO5jamPyLLuWfYkv1TsPWjys3Ho+jJlEAqE8sF4ulOFHYflq870CnmngDh2FhPUJmFbNnK14IS44zIMm43hSjFdolMLBdYorWKUuC2PF9/pIvPKkw/kiK6g6XAMWHsWipdPvY67GdLV7bojgxcWMY1UIiSvCiRieVScuklDEK2n7p0zfFoKjfj2+/57NnjvddkAjAG8p1fX0ZzDxgjykxhir4Qwe9MFpSaT1KI0rz4tk2UieVSHqx3XeogdtP73TxFLc7nUvi6WGNBxz55xPk0kERlYnn/mM4sLOFyIwq525kW32p+qTmTQvzBNolMLJfzBJMiB0TGvW5HxwDCOJCJ5d5j6ptfyu2JKOKmMT3eV0SxOTqixEz8xdaDLplYjhFLpT1zrJcXAzxFd+eiKgvaK/Cnwy6ZWD5QwktMfeGwU7399TE0hhebuHB+sH+QysRypRBkvkJlYrnvmAwRJabJTJnnCis2PzevxET8yQsHraJMLFeKdRKZWC4lsoojG9/vImnfXuH7E4/Rj7q1FrQXCCtu/zK0yBTHtLkX7ErawIUVQ7P/WFVr5mUCcBvrUYK1h5jM05fRXCD+LYf4giYn8aMedAwQWtTeG1psnMv0XVv3F7etD4WmIeDrli5RqM7c7ZH3z1wgFSfs6GP0h1QmlgOLayzie9K0s1fIhve6+HE5jc63ZMBD+zrQsTxFJmNEHvKD5fuL2vdQyFAQV2MiH5+/IArtj/eoVOxxrsfjhy7wMl6mMrEc2Pq587M/fJ1fYb4mg3GQgWzpcTn3FRnrQoobf8008m/Qb5pbaOybW9hOhpqYapNHsj9wvlgBkeUmdLwnHnvbJRPLgUJ2eUdpObcs7k07nwHh5Wa3XMqcwtZ1TGVAQEhh+xNz+IPeE0tPtvlkL8mmlwRM6iU66aV/s6K9g0GQuWEXh+aeeJTJhHlhOVDOLnGQJc9gLYLMSCpbnksJKWg/GVJsHCvIrKYQb3ni3S5xInIgw8b4iiBzPZWJ5Z6QysRyADYC9ECvPIN1CGuaR2XLczfyjZt5mbMLjPvvLTASb4h5wyaK/OtnF0l0nYU/9uy/esWTJ+x2oGN9QZT5phnNPfGIKPMSmgNCD6xHOmfpGmFd0jGeoA5P8DJnFbR9Su/AgX4BgcJJ5JkgFL7joWX01U6CvNdbBJlPUplY7omHmagdVCaWC6TQV3HoA0Cg9IoT1oGNkzOrwNg3K78tJOCe/LYWCvGGghbnrxEiqsxu2X2l7eJEMJ6n3wj5mOsRXuqS+ed9HNrjiYcOdvDn3PHVJTSXsu4d59soARCacuYKvx6s3zP0Up+Z33b5bnrHG7LY80w4lSnP4Jh0UhjJdJLycXLmUYn1XziImX5KEmQCR//TwWfYGDmCzO1UJpbLkc599W472tMfMwtadwXMyGv7bGYeveMFW9hlvvHDbrdsLfsOZ52/SqJe5a7hmRM94mTnlLS7jRUIKzHy0gSBcqFwP7rK83iBBw+4ZGK5HKEfWFVvR3v6Y3pu27GA6Tlt9TNyW4k3RNZy4kk3fEBfuYuNPCBLeL6B4/Jx0COMg8eQ5wJp71lEaXA7tLiNP564xyyKrT/lcBsn548HXD8LHQgFhj5+rthjesG5gLtyW3On0zveArKwiQDPfXoRHXOvROZCKhPrAY6wXVl0zOqWbTvEiaLlmRxfZGad/57EvWVDH89bAqZmt6yfltNKBsJjRy6QnWecH7kAuA3HsF5gVpFL5oIaDu0BGk3Oz+1P050oz+YWtfEZALfluZSE/U6ZcLXEUEH9AXOCOWKPNQAMAVOymkKm5hh6pua0EH9xD128IHN+jRntAf55zrkzH3293S2LqnTKhJ0pz+QIMvPpZYvlfiG75UP+vead2S37p9AD/uJuicwIKhPrAQro5Q3CQKqn7PA3DrdMTrxEJpb7gzuzDa/xMidnN62fnN1C/MWMQpfMedVmtAeYXdhKzrNL/UtDJ3lqt5k8THep9mPnDz1gV66oMaJjpaze55KJ5X4hy7CNlxlcaBh1R1bLZbRJAbyVCYAsEAnypAhysTFyhkPmlAzdRF4m1KTM5sw/ZBmIP5he0CrKDNOa0B45G+tNJO8jC9HQXbnloJl+ZGtB+zBW7XP+CA1kYrnSTMpq/ohpdFZwkmHUxIxmblImDRXmLonMUCoT61GSuL0umViuNBPT2SUurQkZTYkTMpuJ0kylu0qQeZ+2He1Rkti9Nv5ceVQmlitKRvNXE7J0U5nCa2t8RvOp32c0EyWZki+RqWlHe5QkRiITy5VkPN2ATJ17BecYAmlDA5VKG5XhTonMuVQm1qMkUplYrhxNDRFJx6//T7BvS9dHBqfrP789vYkoweQ8gyhzTpUR7VGSlXtcMrFcIc4GpxmWMGXXr3Fp+tm3pTf1BtOBg+UOicwQKhPrUZIVEplYPliol77gVF00U+VdjU3XTxuXqm8Yl9ZEBsOkXJfMeyuNaI+SLN/tkonlg6SPbrRNTNHAKij93OQxabqKsWl64isTc5tFmbOpTKxHSZbtdv52EWRiuc+k6r8ck974KFPjewUl6xJvTdV1jknVk4EyIcclc1aFEe1REkFmbnMfmvvCrSm6U6OTGgb395rSGpOinxSUqtselKI/HURP4C3jJTLvpjKxHiVZKpGJ5QMiRX8iMFm/6Tdbm25mGpQt+LQUlNy4jXI8MKXxclCKjp7UM+OzmyQy29AeJVlaL8i8iubeEJiiOzk6+XwiXevQ/Zc+cLJbUs9H3ZKiy7wlWbcrkAoeTS8Jet8gcHtOc2tZ+w8/AvdUGU3SzB9EvWGxwrnyDVf7sFwOne/p0cmN7wYm6+pA4JikRudfaKilllpqqaWWWmqppZZaaqmlllo3UAUE/B/jbxSGRF2LRwAAAABJRU5ErkJggg==;" vertex="1" parent="1">
          <mxGeometry x="1280" y="240" width="83" height="83" as="geometry" />
        </mxCell>
      </root>
    </mxGraphModel>
  </diagram>
</mxfile>
